<svg width="32" height="29" viewBox="0 0 32 29" fill="none" xmlns="http://www.w3.org/2000/svg">
<g filter="url(#filter0_d_1346_11089)">
<path d="M2.66699 3.13333C2.66699 2.3866 2.66699 2.01323 2.81232 1.72801C2.94015 1.47713 3.14412 1.27316 3.395 1.14532C3.68022 1 4.05359 1 4.80033 1H27.2003C27.9471 1 28.3204 1 28.6056 1.14532C28.8565 1.27316 29.0605 1.47713 29.1883 1.72801C29.3337 2.01323 29.3337 2.3866 29.3337 3.13333V4.02586C29.3337 4.38425 29.3337 4.56345 29.2899 4.73008C29.2511 4.87775 29.1872 5.01765 29.101 5.14368C29.0038 5.28591 28.8683 5.40327 28.5975 5.638L20.0698 13.0287C19.799 13.2634 19.6636 13.3808 19.5663 13.523C19.4801 13.649 19.4163 13.7889 19.3775 13.9366C19.3337 14.1032 19.3337 14.2824 19.3337 14.6408V21.6112C19.3337 21.8719 19.3337 22.0023 19.2916 22.115C19.2544 22.2146 19.194 22.3039 19.1153 22.3754C19.0263 22.4563 18.9052 22.5047 18.6631 22.6015L14.1298 24.4149C13.6398 24.6109 13.3947 24.7089 13.198 24.668C13.026 24.6323 12.8751 24.5301 12.778 24.3837C12.667 24.2162 12.667 23.9523 12.667 23.4245V14.6408C12.667 14.2824 12.667 14.1032 12.6232 13.9366C12.5844 13.7889 12.5205 13.649 12.4343 13.523C12.3371 13.3808 12.2017 13.2634 11.9308 13.0287L3.40314 5.638C3.1323 5.40327 2.99689 5.28591 2.89965 5.14368C2.81348 5.01765 2.7496 4.87775 2.71079 4.73008C2.66699 4.56345 2.66699 4.38425 2.66699 4.02586V3.13333Z" stroke="black" stroke-width="2" stroke-linecap="round" stroke-linejoin="round" shape-rendering="crispEdges"/>
</g>
<defs>
<filter id="filter0_d_1346_11089" x="-2.33301" y="0" width="36.667" height="33.6771" filterUnits="userSpaceOnUse" color-interpolation-filters="sRGB">
<feFlood flood-opacity="0" result="BackgroundImageFix"/>
<feColorMatrix in="SourceAlpha" type="matrix" values="0 0 0 0 0 0 0 0 0 0 0 0 0 0 0 0 0 0 127 0" result="hardAlpha"/>
<feOffset dy="4"/>
<feGaussianBlur stdDeviation="2"/>
<feComposite in2="hardAlpha" operator="out"/>
<feColorMatrix type="matrix" values="0 0 0 0 0 0 0 0 0 0 0 0 0 0 0 0 0 0 0.25 0"/>
<feBlend mode="normal" in2="BackgroundImageFix" result="effect1_dropShadow_1346_11089"/>
<feBlend mode="normal" in="SourceGraphic" in2="effect1_dropShadow_1346_11089" result="shape"/>
</filter>
</defs>
</svg>
