<svg width="26" height="22" viewBox="0 0 26 22" fill="none" xmlns="http://www.w3.org/2000/svg">
<path d="M25 11L9 11M25 3.00002L9 3.00002M25 19L9 19M3.66667 11C3.66667 11.7364 3.06971 12.3334 2.33333 12.3334C1.59695 12.3334 1 11.7364 1 11C1 10.2636 1.59695 9.66669 2.33333 9.66669C3.06971 9.66669 3.66667 10.2636 3.66667 11ZM3.66667 3.00002C3.66667 3.7364 3.06971 4.33335 2.33333 4.33335C1.59695 4.33335 1 3.7364 1 3.00002C1 2.26364 1.59695 1.66669 2.33333 1.66669C3.06971 1.66669 3.66667 2.26364 3.66667 3.00002ZM3.66667 19C3.66667 19.7364 3.06971 20.3334 2.33333 20.3334C1.59695 20.3334 1 19.7364 1 19C1 18.2636 1.59695 17.6667 2.33333 17.6667C3.06971 17.6667 3.66667 18.2636 3.66667 19Z" stroke="black" stroke-width="2" stroke-linecap="round" stroke-linejoin="round"/>
</svg>
